<svg id="Capa_1" enable-background="new 0 0 512.002 512.002" height="512" viewBox="0 0 512.002 512.002" width="512" xmlns="http://www.w3.org/2000/svg"><g><g><path d="m392.487 503.873c-4.363 0-8.753-.823-12.958-2.497l-123.58-49.192-123.553 49.1c-11.171 4.44-23.667 2.877-33.422-4.182-9.881-7.151-15.34-18.726-14.601-30.962l8.109-134.199-84.465-103.612c-7.69-9.434-10.022-21.992-6.237-33.592 3.755-11.507 12.942-20.195 24.576-23.241l128.536-33.648 71.388-113.272c6.49-10.298 17.593-16.446 29.697-16.446 12.105 0 23.207 6.148 29.697 16.446l71.414 113.31 128.551 33.625c11.634 3.043 20.823 11.729 24.58 23.234 3.788 11.598 1.459 24.156-6.228 33.591l-84.479 103.695 8.057 134.221c.734 12.238-4.729 23.811-14.615 30.958-6.084 4.401-13.237 6.662-20.467 6.663zm-136.535-72.45c1.255 0 2.511.236 3.698.709l127.275 50.663c4.85 1.931 10.066 1.278 14.313-1.791 4.374-3.163 6.695-8.102 6.368-13.552l-8.288-138.059c-.012-.199-.018-.399-.018-.599 0-2.301.793-4.591 2.247-6.375l86.938-106.714c3.42-4.198 4.412-9.574 2.721-14.751-1.66-5.082-5.534-8.761-10.629-10.094l-132.374-34.625c-2.456-.642-4.576-2.195-5.929-4.342l-73.52-116.653c-2.848-4.519-7.505-7.11-12.777-7.11s-9.93 2.591-12.778 7.11l-73.494 116.614c-1.353 2.147-3.472 3.7-5.928 4.342l-132.356 34.648c-5.095 1.334-8.969 5.014-10.627 10.097-1.689 5.178-.696 10.554 2.725 14.751l86.933 106.638c1.586 1.945 2.382 4.416 2.231 6.921l-8.344 138.095c-.33 5.449 1.99 10.389 6.362 13.553 4.244 3.071 9.46 3.727 14.311 1.798l127.249-50.568c1.184-.47 2.438-.706 3.691-.706z" fill="#020288"/></g><g><path d="m255.974 366.016-87.438 34.748 5.752-95.19-60.491-74.203 91.966-24.074 50.215-79.676 50.244 79.722 91.996 24.063-58.983 72.399v27.031l.127 2.157 4.072 67.838z" fill="#e2c4ff"/></g></g></svg>